<svg width="16" height="16" viewBox="0 0 16 16" fill="none" xmlns="http://www.w3.org/2000/svg">
<path d="M1.87927 5.55533V14.12C1.88205 14.4408 2.01069 14.7477 2.23749 14.9746C2.46429 15.2016 2.77112 15.3304 3.09194 15.3333H12.9059C13.2266 15.3304 13.5334 15.2017 13.7602 14.9749C13.9869 14.7481 14.1156 14.4414 14.1186 14.1207V5.55533H1.87927ZM11.2259 9.16266C10.9279 9.496 10.6299 9.792 10.3319 10.1233C10.2517 10.2205 10.1624 10.3098 10.0653 10.39C9.97211 10.5018 9.9245 10.6446 9.93194 10.79C9.99861 11.19 10.0313 11.552 10.0653 11.9493C10.0979 12.1153 10.0979 12.2827 10.1319 12.416C10.1464 12.4885 10.1417 12.5635 10.1183 12.6337C10.0949 12.7038 10.0537 12.7667 9.99861 12.816C9.93083 12.8626 9.85184 12.8902 9.7698 12.8961C9.68777 12.902 9.60565 12.8858 9.53194 12.8493C9.06527 12.6173 8.63794 12.3827 8.20727 12.1207C8.13927 12.0718 8.05766 12.0456 7.97394 12.0456C7.89022 12.0456 7.80861 12.0718 7.74061 12.1207C7.27394 12.3527 6.81327 12.6173 6.34927 12.8493C6.2878 12.8824 6.21908 12.8997 6.14927 12.8997C6.07946 12.8997 6.01074 12.8824 5.94927 12.8493C5.88358 12.8173 5.83112 12.7633 5.80094 12.6968C5.77076 12.6302 5.76475 12.5552 5.78394 12.4847C5.82256 12.3093 5.84487 12.1308 5.85061 11.9513C5.91727 11.5513 5.98394 11.1567 6.01661 10.7587C6.0277 10.6915 6.02125 10.6227 5.99789 10.5588C5.97452 10.4949 5.93504 10.4381 5.88327 10.394L4.78994 9.20133C4.75069 9.16565 4.71934 9.12216 4.69788 9.07366C4.67642 9.02515 4.66534 8.9727 4.66534 8.91966C4.66534 8.86662 4.67642 8.81417 4.69788 8.76566C4.71934 8.71716 4.75069 8.67367 4.78994 8.638C4.81904 8.60554 4.85489 8.57984 4.89496 8.56268C4.93503 8.54553 4.97837 8.53733 5.02194 8.53866C5.55194 8.43933 6.04861 8.30666 6.57861 8.174C6.65173 8.16017 6.72035 8.12863 6.77846 8.08214C6.83657 8.03566 6.8824 7.97563 6.91194 7.90733L7.60727 6.516C7.6489 6.42557 7.72352 6.35448 7.81586 6.3173C7.9082 6.28012 8.01127 6.27965 8.10394 6.31599C8.13661 6.31599 8.13661 6.34866 8.17061 6.34866C8.232 6.38793 8.27884 6.44624 8.30394 6.51466C8.53594 6.94533 8.80061 7.40866 9.03261 7.87266C9.06641 7.93797 9.11355 7.99544 9.17097 8.04138C9.22839 8.08731 9.29481 8.12068 9.36594 8.13933C9.89594 8.23866 10.4253 8.37133 10.9559 8.47266C11.0093 8.48354 11.0599 8.5054 11.1043 8.53686C11.1488 8.56832 11.1862 8.60869 11.2143 8.6554C11.2423 8.70211 11.2603 8.75415 11.2671 8.80819C11.274 8.86224 11.2695 8.91711 11.2539 8.96933C11.2645 9.00153 11.2675 9.03574 11.2627 9.06928C11.2578 9.10283 11.2452 9.13479 11.2259 9.16266Z" fill="#4C4C4C"/>
<path opacity="0.8" d="M5.55463 2.13666C5.55463 1.98955 5.66574 1.91599 5.88796 1.91599H10.1146C10.3368 1.91599 10.448 1.98955 10.448 2.13666V4.12199C10.448 4.23199 10.4113 4.30599 10.264 4.34266C10.2009 4.35737 10.1355 4.35844 10.072 4.34579C10.0086 4.33314 9.94853 4.30707 9.89596 4.26933L8.23796 3.16666C8.18624 3.12724 8.12621 3.10015 8.06244 3.08744C7.99867 3.07473 7.93284 3.07675 7.86996 3.09333C7.84149 3.09382 7.81349 3.10066 7.788 3.11334C7.76252 3.12603 7.74018 3.14425 7.72263 3.16666C7.17129 3.53466 6.65596 3.89999 6.10596 4.26933C6.06012 4.30698 6.00603 4.33325 5.94809 4.346C5.89016 4.35874 5.83003 4.3576 5.77263 4.34266C5.71865 4.33333 5.66748 4.31194 5.62292 4.28008C5.57837 4.24822 5.54158 4.20672 5.51529 4.15866V4.08533C5.55463 3.38666 5.55463 2.76199 5.55463 2.13666ZM14.1186 5.55533C14.4394 5.55254 14.7462 5.42389 14.973 5.19707C15.1999 4.97025 15.3285 4.66342 15.3313 4.34266V1.87933C15.337 1.72162 15.3108 1.56438 15.2543 1.41707C15.1977 1.26975 15.1118 1.13541 15.002 1.02212C14.8921 0.908833 14.7605 0.818941 14.615 0.757854C14.4695 0.696766 14.3131 0.665747 14.1553 0.666661H1.87929C1.55859 0.669617 1.25186 0.798329 1.02508 1.02511C0.798294 1.25189 0.669582 1.55862 0.666626 1.87933V4.34266C0.669411 4.66342 0.798068 4.97025 1.02489 5.19707C1.2517 5.42389 1.55854 5.55254 1.87929 5.55533H14.1186Z" fill="#4C4C4C"/>
<path opacity="0.16" d="M5.55469 2.13732C5.55469 1.99021 5.6658 1.91666 5.88802 1.91666H10.1147C10.3369 1.91666 10.448 1.99021 10.448 2.13732V4.12199C10.448 4.23199 10.4114 4.30599 10.264 4.34266C10.201 4.35737 10.1356 4.35844 10.0721 4.34579C10.0086 4.33314 9.94859 4.30707 9.89602 4.26932L8.24269 3.16666C8.19097 3.12724 8.13094 3.10015 8.06717 3.08744C8.00339 3.07473 7.93756 3.07674 7.87469 3.09332C7.84622 3.09381 7.81822 3.10065 7.79273 3.11334C7.76724 3.12603 7.74491 3.14424 7.72735 3.16666C7.17602 3.53466 6.66069 3.89999 6.11069 4.26932C6.06485 4.30697 6.01075 4.33324 5.95282 4.34599C5.89489 4.35874 5.83476 4.35759 5.77735 4.34266C5.72338 4.33332 5.67221 4.31193 5.62765 4.28007C5.5831 4.24821 5.5463 4.20671 5.52002 4.15866V4.08532C5.55469 3.38666 5.55469 2.76199 5.55469 2.13732Z" fill="#4C4C4C"/>
<path opacity="0.08" d="M11.226 9.16266C10.928 9.49599 10.63 9.79199 10.332 10.1233C10.2518 10.2205 10.1625 10.3098 10.0653 10.39C9.97217 10.5018 9.92456 10.6446 9.932 10.79C9.99867 11.19 10.0313 11.552 10.0653 11.9493C10.098 12.1153 10.098 12.2827 10.132 12.416C10.1465 12.4885 10.1418 12.5635 10.1184 12.6337C10.095 12.7038 10.0537 12.7667 9.99867 12.816C9.93089 12.8626 9.85191 12.8902 9.76987 12.8961C9.68783 12.902 9.60571 12.8858 9.532 12.8493C9.06534 12.6173 8.638 12.3827 8.20734 12.1207C8.13934 12.0718 8.05772 12.0456 7.974 12.0456C7.89028 12.0456 7.80867 12.0718 7.74067 12.1207C7.274 12.3527 6.81334 12.6173 6.34934 12.8493C6.28787 12.8824 6.21915 12.8997 6.14934 12.8997C6.07953 12.8997 6.01081 12.8824 5.94934 12.8493C5.88364 12.8173 5.83119 12.7633 5.80101 12.6968C5.77083 12.6302 5.76481 12.5552 5.784 12.4847C5.82262 12.3093 5.84494 12.1308 5.85067 11.9513C5.91734 11.5513 5.984 11.1567 6.01667 10.7587C6.02776 10.6915 6.02131 10.6227 5.99795 10.5588C5.97459 10.4949 5.93511 10.4381 5.88334 10.394L4.79 9.20133C4.75076 9.16565 4.7194 9.12216 4.69795 9.07366C4.67649 9.02515 4.66541 8.9727 4.66541 8.91966C4.66541 8.86662 4.67649 8.81417 4.69795 8.76566C4.7194 8.71716 4.75076 8.67367 4.79 8.63799C4.81911 8.60554 4.85495 8.57984 4.89502 8.56268C4.9351 8.54553 4.97843 8.53733 5.022 8.53866C5.552 8.43933 6.04867 8.30666 6.57867 8.17399C6.65179 8.16017 6.72041 8.12863 6.77852 8.08214C6.83663 8.03565 6.88246 7.97563 6.912 7.90733L7.618 6.51266C7.65963 6.42224 7.73425 6.35115 7.82659 6.31397C7.91893 6.27678 8.022 6.27632 8.11467 6.31266C8.14734 6.31266 8.14734 6.34533 8.18134 6.34533C8.24273 6.3846 8.28957 6.44291 8.31467 6.51133C8.54667 6.942 8.81134 7.40533 9.04334 7.86933C9.07714 7.93463 9.12428 7.99211 9.1817 8.03805C9.23912 8.08398 9.30554 8.11735 9.37667 8.136C9.90667 8.23533 10.436 8.368 10.9667 8.46933C11.02 8.4802 11.0706 8.50206 11.1151 8.53352C11.1595 8.56498 11.197 8.60535 11.225 8.65207C11.253 8.69878 11.271 8.75081 11.2779 8.80486C11.2847 8.8589 11.2802 8.91378 11.2647 8.96599C11.2743 8.99949 11.2758 9.0348 11.2691 9.069C11.2624 9.1032 11.2476 9.13531 11.226 9.16266Z" fill="#4C4C4C"/>
</svg>
